HIERARCHY
ROOT joint_Root
{
	OFFSET 0.0 0.0 0.0
	CHANNELS 6 Xposition Yposition Zposition Zrotation Xrotation Yrotation 
	JOINT Hips
	{
		OFFSET 4.5925 91.4895 -427.239
		CHANNELS 6 Xposition Yposition Zposition Zrotation Xrotation Yrotation 
		JOINT Spine
		{
			OFFSET 15.7357 0.0 0.0
			CHANNELS 6 Xposition Yposition Zposition Zrotation Xrotation Yrotation 
			JOINT Chest
			{
				OFFSET 8.98455 -0.406207 0.0
				CHANNELS 6 Xposition Yposition Zposition Zrotation Xrotation Yrotation 
				JOINT Neck
				{
					OFFSET 16.3773 0.0 0.0
					CHANNELS 6 Xposition Yposition Zposition Zrotation Xrotation Yrotation 
					JOINT Head
					{
						OFFSET 6.45672 0.0 0.0
						CHANNELS 6 Xposition Yposition Zposition Zrotation Xrotation Yrotation 
						End Site
						{
							OFFSET 0.0 0.0 0.0
						}
					}
				}
				JOINT Shoulder_L
				{
					OFFSET 12.9942 -0.242716 4.98039
					CHANNELS 6 Xposition Yposition Zposition Zrotation Xrotation Yrotation 
					JOINT UpperArm_L
					{
						OFFSET 5.34809 0.0 0.0
						CHANNELS 6 Xposition Yposition Zposition Zrotation Xrotation Yrotation 
						JOINT LowerArm_L
						{
							OFFSET 24.3286 1.87007e-05 0.0
							CHANNELS 6 Xposition Yposition Zposition Zrotation Xrotation Yrotation 
							JOINT Hand_L
							{
								OFFSET 22.2916 0.0 0.0
								CHANNELS 6 Xposition Yposition Zposition Zrotation Xrotation Yrotation 
								End Site
								{
									OFFSET 0.0 0.0 0.0
								}
							}
						}
					}
				}
				JOINT Shoulder_R
				{
					OFFSET 12.9945 -0.242716 -4.98039
					CHANNELS 6 Xposition Yposition Zposition Zrotation Xrotation Yrotation 
					JOINT UpperArm_R
					{
						OFFSET -5.34813 0.0 0.0
						CHANNELS 6 Xposition Yposition Zposition Zrotation Xrotation Yrotation 
						JOINT LowerArm_R
						{
							OFFSET -24.3289 0.000322201 0.0
							CHANNELS 6 Xposition Yposition Zposition Zrotation Xrotation Yrotation 
							JOINT Hand_R
							{
								OFFSET -22.2915 -0.000108084 0.0
								CHANNELS 6 Xposition Yposition Zposition Zrotation Xrotation Yrotation 
								End Site
								{
									OFFSET 0.0 0.0 0.0
								}
							}
						}
					}
				}
			}
		}
		JOINT UpperLeg_L
		{
			OFFSET -2.19248 -6.46944 0.0
			CHANNELS 6 Xposition Yposition Zposition Zrotation Xrotation Yrotation 
			JOINT LowerLeg_L
			{
				OFFSET 39.0811 0.0 -1.23785e-05
				CHANNELS 6 Xposition Yposition Zposition Zrotation Xrotation Yrotation 
				JOINT Foot_L
				{
					OFFSET 40.9854 0.0 -1.26872e-05
					CHANNELS 6 Xposition Yposition Zposition Zrotation Xrotation Yrotation 
					JOINT Toes_L
					{
						OFFSET 11.7543 0.0 0.0
						CHANNELS 6 Xposition Yposition Zposition Zrotation Xrotation Yrotation 
						End Site
						{
							OFFSET 0.0 0.0 0.0
						}
					}
				}
			}
		}
		JOINT UpperLeg_R
		{
			OFFSET -2.19251 6.46944 0.0
			CHANNELS 6 Xposition Yposition Zposition Zrotation Xrotation Yrotation 
			JOINT LowerLeg_R
			{
				OFFSET -39.0811 -0.00228153 -0.0401928
				CHANNELS 6 Xposition Yposition Zposition Zrotation Xrotation Yrotation 
				JOINT Foot_R
				{
					OFFSET -40.9854 0.0 0.0
					CHANNELS 6 Xposition Yposition Zposition Zrotation Xrotation Yrotation 
					JOINT Toes_R
					{
						OFFSET -11.7543 0.0 0.0
						CHANNELS 6 Xposition Yposition Zposition Zrotation Xrotation Yrotation 
						End Site
						{
							OFFSET 0.0 0.0 0.0
						}
					}
				}
			}
		}
	}
}
MOTION
Frames:	5
Frame Time:	0.0333333
0.000000 0.000000 0.000000 0.000000 0.000000 -0.000000 134.846000 87.074200 171.046000 -84.089300 21.252000 -177.442000 15.735700 0.000005 -0.000001 79.548000 83.644100 -76.995100 8.984550 -0.406207 -0.000000 4.796030 -2.367790 5.199660 16.377300 -0.000001 -0.000001 -1.786710 -0.189311 5.173590 6.456720 -0.000001 -0.000000 -7.620800 3.600040 9.105210 12.994200 -0.242716 4.980390 -90.917200 3.418450 -74.971900 5.348090 -0.000007 -0.000001 -62.311700 48.877200 -27.878200 24.328600 0.000019 0.000005 7.817760 21.642100 -20.419100 22.291600 -0.000001 0.000005 15.392300 5.058430 6.050940 12.994500 -0.242716 -4.980390 87.531600 12.815200 -79.001700 -5.348130 -0.000001 -0.000004 -57.147500 19.141700 -4.897030 -24.328900 0.000322 -0.000009 0.937751 6.392480 -8.372490 -22.291500 -0.000108 -0.000004 16.943300 5.303260 -0.019327 -2.192480 -6.469440 -0.000000 -171.834000 1.365500 -6.855950 39.081100 -0.000007 -0.000012 0.069597 -0.025251 70.054300 40.985400 -0.000006 -0.000013 -0.858251 3.284500 -51.439400 11.754300 -0.000000 0.000003 -0.010384 -0.106497 -20.916300 -2.192510 6.469440 -0.000001 -178.096000 15.914100 170.941000 -39.081100 -0.002282 -0.040193 0.057833 -0.056310 44.098800 -40.985400 0.000008 0.000006 6.224520 5.372140 -79.258700 -11.754300 -0.000006 -0.000006 -0.583316 -0.714814 -17.689600
0.000000 0.000000 0.000000 0.000000 0.000000 -0.000000 135.983000 88.303700 168.462000 -85.444400 23.162100 -177.096000 15.735700 0.000005 -0.000001 86.220100 83.712900 -84.274700 8.984550 -0.406207 -0.000000 4.799120 -0.877660 3.923280 16.377300 -0.000001 -0.000001 -1.658570 0.740020 5.369250 6.456720 -0.000001 -0.000000 -7.076730 3.499420 9.307700 12.994200 -0.242716 4.980390 -90.851000 3.002970 -74.169400 5.348090 -0.000007 -0.000001 -65.259600 41.593200 -21.420800 24.328600 0.000019 0.000005 6.282330 23.079000 -15.686700 22.291600 -0.000001 0.000005 12.369400 5.027940 6.719010 12.994500 -0.242716 -4.980390 88.061000 11.990800 -80.744800 -5.348130 -0.000001 -0.000004 -55.272400 17.361700 -11.065000 -24.328900 0.000322 -0.000009 1.128910 7.495670 -8.597830 -22.291500 -0.000108 -0.000004 17.973400 5.280690 0.607269 -2.192480 -6.469440 -0.000000 -174.799000 -4.262780 -10.542500 39.081100 -0.000007 -0.000012 0.059798 -0.021702 70.047900 40.985400 -0.000006 -0.000013 4.123420 -6.132140 -55.361500 11.754300 -0.000000 0.000003 -0.008739 -0.093975 -20.404300 -2.192510 6.469440 -0.000001 179.956000 15.224300 174.790000 -39.081100 -0.002282 -0.040193 0.038346 -0.042214 39.715800 -40.985400 0.000008 0.000006 6.304180 7.105380 -76.641300 -11.754300 -0.000006 -0.000006 -1.243520 -1.469380 -19.479000
0.000000 0.000000 0.000000 0.000000 0.000000 -0.000000 137.023000 89.453200 166.153000 -86.151100 25.048900 -177.626000 15.735700 0.000005 -0.000001 92.304800 83.929900 -90.630100 8.984550 -0.406207 -0.000000 4.360300 0.437702 3.328960 16.377300 -0.000001 -0.000001 -1.513980 1.317070 5.089510 6.456720 -0.000001 -0.000000 -6.935200 3.446570 8.195610 12.994200 -0.242716 4.980390 -90.888900 2.960270 -73.277300 5.348090 -0.000007 -0.000001 -65.438600 34.457500 -15.838600 24.328600 0.000019 0.000005 5.576160 24.105100 -13.444200 22.291600 -0.000001 0.000005 10.075100 5.130540 4.404110 12.994500 -0.242716 -4.980390 88.511200 10.445400 -81.841900 -5.348130 -0.000001 -0.000004 -54.018800 15.479700 -16.861000 -24.328900 0.000322 -0.000009 1.442430 7.853560 -10.448800 -22.291500 -0.000108 -0.000004 17.761300 5.269900 0.900770 -2.192480 -6.469440 -0.000000 -177.623000 -8.372730 -14.668000 39.081100 -0.000007 -0.000012 0.042734 -0.018013 67.137900 40.985400 -0.000006 -0.000013 7.543560 -9.023290 -58.254700 11.754300 -0.000000 0.000003 -0.007869 -0.086973 -20.118300 -2.192510 6.469440 -0.000001 178.601000 15.277100 176.942000 -39.081100 -0.002282 -0.040193 0.022781 -0.026393 36.449900 -40.985400 0.000008 0.000006 6.485570 9.731790 -72.850400 -11.754300 -0.000006 -0.000006 -1.066200 -1.216860 -21.763400
0.000000 0.000000 0.000000 0.000000 0.000000 -0.000000 137.952000 90.412300 164.027000 -86.640500 26.688800 -178.706000 15.735700 0.000005 -0.000001 98.254600 84.213500 -96.856300 8.984550 -0.406207 -0.000000 3.670210 1.609440 2.741990 16.377300 -0.000001 -0.000001 -1.578290 1.423410 4.722470 6.456720 -0.000001 -0.000000 -7.124800 3.309280 7.031320 12.994200 -0.242716 4.980390 -90.906300 2.911350 -72.700400 5.348090 -0.000007 -0.000001 -63.562400 28.842300 -10.883100 24.328600 0.000019 0.000005 5.725890 24.873800 -13.408100 22.291600 -0.000001 0.000005 10.569700 5.175550 3.324830 12.994500 -0.242716 -4.980390 88.733000 9.379400 -82.271800 -5.348130 -0.000001 -0.000004 -52.419800 14.229000 -22.254800 -24.328900 0.000322 -0.000009 1.362580 5.582650 -13.750800 -22.291500 -0.000108 -0.000004 16.688200 5.298270 0.120531 -2.192480 -6.469440 -0.000000 179.693000 -10.770000 -18.724400 39.081100 -0.000007 -0.000012 0.030662 -0.016761 61.329500 40.985400 -0.000006 -0.000013 6.537210 -7.426710 -60.654900 11.754300 -0.000000 0.000003 -0.007417 -0.083211 -19.964700 -2.192510 6.469440 -0.000001 177.273000 16.353300 178.109000 -39.081100 -0.002282 -0.040193 0.018204 -0.022091 34.017700 -40.985400 0.000008 0.000006 6.591970 13.139600 -69.924800 -11.754300 -0.000006 -0.000006 -0.022527 -0.180903 -23.969200
0.000000 0.000000 0.000000 0.000000 0.000000 -0.000000 138.876000 90.967000 161.895000 -86.742400 28.257700 -179.664000 15.735700 0.000005 -0.000001 102.475000 84.192600 -101.232000 8.984550 -0.406207 -0.000000 3.551840 2.460180 2.406710 16.377300 -0.000001 -0.000001 -2.249380 1.787700 4.299400 6.456720 -0.000001 -0.000000 -7.726850 3.232540 5.838190 12.994200 -0.242716 4.980390 -90.923900 2.856900 -72.070200 5.348090 -0.000007 -0.000001 -61.396600 23.100900 -6.404890 24.328600 0.000019 0.000005 6.315000 25.606200 -14.362600 22.291600 -0.000001 0.000005 12.683600 5.147930 3.991950 12.994500 -0.242716 -4.980390 88.956700 8.463890 -82.946600 -5.348130 -0.000001 -0.000004 -49.891200 13.770100 -27.453400 -24.328900 0.000322 -0.000009 0.546346 1.624790 -18.629700 -22.291500 -0.000108 -0.000004 16.039900 5.332810 -0.867887 -2.192480 -6.469440 -0.000000 177.487000 -12.382700 -21.471200 39.081100 -0.000007 -0.000012 0.020242 -0.015333 52.849100 40.985400 -0.000006 -0.000013 5.705650 -4.217120 -62.828200 11.754300 -0.000000 0.000003 -0.005701 -0.068101 -19.348200 -2.192510 6.469440 -0.000001 176.278000 16.959500 179.142000 -39.081100 -0.002282 -0.040193 0.018638 -0.024109 32.468900 -40.985400 0.000008 0.000006 6.795230 16.054000 -67.745200 -11.754300 -0.000006 -0.000006 -0.037675 -0.250707 -26.865200
